<?xml version="1.0" encoding="iso-8859-1"?>
<!-- Generator: Adobe Illustrator 19.0.0, SVG Export Plug-In . SVG Version: 6.00 Build 0)  -->
<svg version="1.1" id="Capa_1" xmlns="http://www.w3.org/2000/svg" xmlns:xlink="http://www.w3.org/1999/xlink" x="0px" y="0px"
	 viewBox="0 0 512.009 512.009" style="enable-background:new 0 0 512.009 512.009;" xml:space="preserve">
<path style="fill:#F44336;" d="M431.087,374.298l-117.333-53.333c-4.044-1.854-8.814-1.004-11.968,2.133l-18.197,18.24H228.42
	l-18.219-18.219c-3.154-3.137-7.924-3.988-11.968-2.133L80.9,374.319c-4.753,2.168-7.236,7.46-5.867,12.501l32,117.333
	c1.27,4.642,5.492,7.858,10.304,7.851h64c5.891,0,10.667-4.776,10.667-10.667c0-29.547,35.008-53.333,64-53.333s64,23.787,64,53.333
	c0,5.891,4.776,10.667,10.667,10.667h64c4.811-0.005,9.022-3.23,10.283-7.872l32-117.333
	C438.323,381.757,435.84,376.466,431.087,374.298z"/>
<g>
	<path style="fill:#FFC107;" d="M127.62,498.543l-32-117.333c-0.489-1.791-1.438-3.424-2.752-4.736l-10.667-10.667
		c-3.241-3.238-8.186-4.045-12.288-2.005l-24.192,11.989c-14.661,7.395-25.079,21.153-28.224,37.269l-17.28,86.144
		c-1.178,5.772,2.546,11.406,8.318,12.585c0.703,0.143,1.418,0.216,2.136,0.215h106.667c5.891-0.006,10.662-4.787,10.655-10.678
		C127.992,500.386,127.867,499.45,127.62,498.543z"/>
	<path style="fill:#FFC107;" d="M494.532,413.082c-3.158-16.17-13.628-29.964-28.352-37.355l-24.107-11.947
		c-4.102-2.039-9.047-1.232-12.288,2.005l-10.667,10.667c-1.314,1.312-2.263,2.945-2.752,4.736l-32,117.333
		c-1.555,5.682,1.79,11.549,7.472,13.104c0.923,0.253,1.875,0.38,2.832,0.378h106.667c5.891,0.001,10.668-4.773,10.669-10.664
		c0-0.717-0.072-1.433-0.216-2.135L494.532,413.082z"/>
</g>
<path style="fill:#ECEFF1;" d="M256.004,426.671c-40.277,0-85.333,32-85.333,74.667c0,5.891,4.776,10.667,10.667,10.667h149.333
	c5.891,0,10.667-4.776,10.667-10.667C341.338,458.671,296.282,426.671,256.004,426.671z"/>
<path style="fill:#FFC107;" d="M383.684,141.274c0.213-0.851,0.321-1.725,0.32-2.603c0-40.939-2.389-92.139-13.781-103.552
	c-17.051-12.562-36.505-21.48-57.152-26.197c-5.277-1.47-10.81,1.296-12.8,6.4l-19.477,48.683h-49.579l-19.499-48.768
	c-1.99-5.104-7.523-7.87-12.8-6.4c-20.646,4.746-40.093,13.693-57.131,26.283c-11.392,11.413-13.781,62.613-13.781,103.552
	c0.002,0.844,0.117,1.683,0.341,2.496c-0.341,2.667-0.341,5.419-0.341,8.171c0.034,2.489,0.197,4.974,0.491,7.445
	c-0.326,1.043-0.491,2.129-0.491,3.221v64c0,5.891,4.776,10.667,10.667,10.667c16.03-0.509,31.549,5.674,42.837,17.067
	c7.315,7.614,11.066,17.969,10.325,28.501c-0.506,5.869,3.841,11.038,9.71,11.544c2.424,0.209,4.846-0.417,6.866-1.773
	l18.859-12.672h57.472l18.837,12.693c4.89,3.285,11.517,1.985,14.803-2.905c1.357-2.019,1.983-4.442,1.773-6.866
	c-0.741-10.533,3.01-20.887,10.325-28.501c11.29-11.406,26.818-17.597,42.859-17.088c5.891,0,10.667-4.776,10.667-10.667v-64
	c-0.001-1.08-0.173-2.153-0.512-3.179c0.305-2.485,0.476-4.985,0.512-7.488C384.004,146.628,384.004,143.919,383.684,141.274z"/>
<g>
	<path style="fill:#FAFAFA;" d="M362.116,135.3c-1.865-5.582-7.898-8.598-13.483-6.741l-64,21.333
		c-5.585,1.875-8.592,7.922-6.717,13.507c1.456,4.336,5.514,7.261,10.088,7.272h53.333c5.891,0,10.667-4.776,10.667-10.667v-10.091
		l3.371-1.131C360.957,146.918,363.973,140.885,362.116,135.3z"/>
	<path style="fill:#FAFAFA;" d="M227.375,149.892l-64-21.333c-5.514-2.074-11.665,0.715-13.739,6.229s0.715,11.665,6.229,13.739
		c0.253,0.095,0.509,0.18,0.768,0.256l14.037,4.693v6.528c0,5.891,4.776,10.667,10.667,10.667h42.667
		c5.891-0.013,10.656-4.8,10.643-10.691C234.636,155.406,231.711,151.348,227.375,149.892z"/>
</g>
<g>
	<path style="fill:#F44336;" d="M319.77,14.49c-1.334-2.707-3.753-4.723-6.656-5.547c-18.558-5.491-37.761-8.496-57.109-8.939
		c-19.348,0.442-38.552,3.448-57.109,8.939c-5.652,1.661-8.887,7.59-7.226,13.242c0.096,0.327,0.208,0.65,0.335,0.966l22.187,55.467
		c1.603,4.025,5.481,6.681,9.813,6.72h64c4.358-0.001,8.277-2.653,9.899-6.699l22.101-55.488
		C321.155,20.361,321.07,17.213,319.77,14.49z"/>
	<path style="fill:#F44336;" d="M208.282,290.138c2.749-1.793,4.519-4.752,4.8-8.021c1.307-16.505-4.454-32.789-15.851-44.8
		c-15.322-15.81-36.55-24.502-58.56-23.979c-5.891,0-10.667,4.776-10.667,10.667v21.333c0,2.308,0.749,4.554,2.133,6.4l32,42.667
		c2.014,2.686,5.176,4.267,8.533,4.267h21.333c2.068,0.001,4.091-0.6,5.824-1.728L208.282,290.138z"/>
	<path style="fill:#F44336;" d="M373.338,213.338c-22.013-0.518-43.242,8.182-58.56,24c-11.396,12.011-17.158,28.295-15.851,44.8
		c0.281,3.27,2.051,6.228,4.8,8.021l10.453,6.827c1.737,1.113,3.761,1.699,5.824,1.685h21.333c3.357,0,6.519-1.581,8.533-4.267
		l32-42.667c1.385-1.846,2.133-4.092,2.133-6.4v-21.333C384.004,218.113,379.229,213.338,373.338,213.338z"/>
</g>
<path style="fill:#FFA000;" d="M350.874,283.226c-1.808-3.609-5.499-5.888-9.536-5.888h-18.112l-29.312-19.541
	c-1.75-1.167-3.806-1.79-5.909-1.792h-64c-2.12,0-4.192,0.631-5.952,1.813l-29.205,19.52h-18.176
	c-5.891,0-10.667,4.776-10.667,10.667c0,2.308,0.749,4.554,2.133,6.4l32,42.667c3.095,4.127,8.7,5.447,13.312,3.136l40.405-20.203
	h16.299l40.427,20.203c4.607,2.299,10.198,0.98,13.291-3.136l32-42.667C352.297,291.169,352.685,286.841,350.874,283.226z"/>
<path style="fill:#D32F2F;" d="M314.116,321.135l-42.667-21.333c-1.483-0.743-3.12-1.131-4.779-1.131h-21.333
	c-1.659,0-3.295,0.387-4.779,1.131l-42.667,21.333c-5.266,2.64-7.395,9.05-4.755,14.316c0.51,1.017,1.179,1.945,1.982,2.751
	l21.333,21.333c2.001,2.007,4.718,3.135,7.552,3.136h64c2.831,0.005,5.548-1.115,7.552-3.115l21.333-21.333
	c4.159-4.172,4.149-10.926-0.023-15.085c-0.805-0.803-1.734-1.472-2.751-1.982V321.135z"/>
<path d="M373.338,256.004c-5.891,0-10.667-4.776-10.667-10.667v-80.832c-0.752-1.701-1.046-3.569-0.853-5.419l0.299-2.667
	c0.322-2.348,0.507-4.713,0.555-7.083c0-3.264-0.213-6.4-0.491-9.685c-0.127-1.441,0.04-2.892,0.491-4.267
	c1.143-28.755-1.526-57.535-7.936-85.589c-29.947-17.745-63.933-27.542-98.731-28.459c-34.985,0.864-69.143,10.818-99.115,28.885
	c-6.062,28.069-8.599,56.785-7.552,85.483c0.438,1.267,0.605,2.611,0.491,3.947c-0.277,3.285-0.491,6.421-0.491,9.685
	c0.048,2.37,0.233,4.734,0.555,7.083l0.299,2.667c0.193,1.85-0.101,3.718-0.853,5.419v80.832c0,5.891-4.776,10.667-10.667,10.667
	c-5.891,0-10.667-4.776-10.667-10.667v-85.333c-0.003-1.07,0.155-2.134,0.469-3.157c-0.294-2.493-0.451-5-0.469-7.509
	c0-2.773,0.107-5.504,0.32-8.235c-0.212-0.793-0.319-1.611-0.32-2.432c0-40.939,2.389-92.139,13.781-103.552
	C175.786,12.88,215.382,0.707,256.004,0.004c40.622,0.702,80.218,12.875,114.219,35.115c11.392,11.413,13.781,62.613,13.781,103.552
	c0.003,0.855-0.098,1.707-0.299,2.539c0.192,2.688,0.299,5.397,0.299,8.128c-0.022,2.431-0.172,4.859-0.448,7.275
	c0.302,1.105,0.453,2.246,0.448,3.392v85.333C384.004,251.229,379.229,256.004,373.338,256.004z"/>
<path d="M341.338,170.671h-53.333c-5.891-0.013-10.656-4.8-10.643-10.691c0.01-4.574,2.936-8.632,7.272-10.088l64-21.333
	c5.655-1.649,11.577,1.598,13.227,7.253c1.562,5.354-1.265,11.007-6.485,12.971l-3.371,1.131v10.091
	C352.004,165.895,347.229,170.671,341.338,170.671z"/>
<path d="M224.004,170.671h-42.667c-5.891,0-10.667-4.776-10.667-10.667v-6.528l-14.037-4.693c-5.655-1.649-8.903-7.571-7.253-13.227
	c1.649-5.655,7.571-8.903,13.227-7.253c0.259,0.076,0.515,0.161,0.768,0.256l64,21.333c5.585,1.875,8.592,7.922,6.717,13.507
	C232.636,167.735,228.578,170.661,224.004,170.671z"/>
<path d="M288.004,85.338h-64c-4.358-0.001-8.277-2.653-9.899-6.699l-21.333-53.333c-2.078-5.512,0.707-11.666,6.219-13.743
	c5.351-2.017,11.34,0.545,13.578,5.807l18.645,46.635h49.557l18.667-46.635c2.186-5.473,8.394-8.138,13.867-5.952
	s8.138,8.394,5.952,13.867l0,0l-21.333,53.333C296.307,82.679,292.376,85.342,288.004,85.338z"/>
<path d="M341.338,298.671h-21.333c-2.103-0.002-4.159-0.625-5.909-1.792l-29.312-19.541h-57.6l-29.312,19.541
	c-1.738,1.159-3.778,1.782-5.867,1.792h-21.333c-5.891,0-10.667-4.776-10.667-10.667c0-5.891,4.776-10.667,10.667-10.667h18.112
	l29.312-19.541c1.75-1.167,3.806-1.79,5.909-1.792h64c2.103,0.002,4.159,0.625,5.909,1.792l29.312,19.541h18.112
	c5.891,0,10.667,4.776,10.667,10.667C352.004,293.895,347.229,298.671,341.338,298.671z"/>
<path d="M330.671,512.004c-5.891,0-10.667-4.776-10.667-10.667c0-29.547-35.008-53.333-64-53.333s-64,23.787-64,53.333
	c0,5.891-4.776,10.667-10.667,10.667c-5.891,0-10.667-4.776-10.667-10.667c0-42.667,45.056-74.667,85.333-74.667
	s85.333,32,85.333,74.667C341.338,507.229,336.562,512.004,330.671,512.004z"/>
<path d="M202.671,288.004c-5.891,0-10.667-4.776-10.667-10.667c-2.856-26.438-26.604-45.555-53.043-42.699
	c-0.097,0.01-0.194,0.021-0.291,0.032c-5.891,0-10.667-4.776-10.667-10.667c0-5.891,4.776-10.667,10.667-10.667
	c38.094-3.115,71.5,25.241,74.616,63.335c0.018,0.222,0.035,0.443,0.051,0.665C213.338,283.229,208.562,288.004,202.671,288.004z"/>
<path d="M309.338,288.004c-5.891,0-10.667-4.776-10.667-10.667c2.748-38.122,35.879-66.799,74.001-64.051
	c0.222,0.016,0.444,0.033,0.665,0.051c5.891,0,10.667,4.776,10.667,10.667c0,5.891-4.776,10.667-10.667,10.667
	c-26.42-3.017-50.284,15.955-53.301,42.376c-0.011,0.097-0.022,0.194-0.032,0.291C320.004,283.229,315.229,288.004,309.338,288.004z
	"/>
<path d="M309.338,341.338c-1.652-0.003-3.28-0.39-4.757-1.131l-40.427-20.203h-16.299l-40.427,20.203
	c-4.606,2.299-10.198,0.98-13.291-3.136l-64-85.333c-3.535-4.713-2.579-11.399,2.133-14.933c4.713-3.535,11.399-2.58,14.933,2.133
	l58.667,78.208l34.709-17.344c1.477-0.74,3.105-1.127,4.757-1.131h21.333c1.659,0,3.295,0.387,4.779,1.131l34.709,17.344
	l58.645-78.208c3.539-4.71,10.225-5.659,14.935-2.12c4.704,3.534,5.658,10.21,2.131,14.92l-64,85.333
	C315.857,339.757,312.695,341.338,309.338,341.338z"/>
<path d="M501.338,512.004H10.671c-5.891,0.001-10.668-4.773-10.669-10.664c0-0.717,0.072-1.433,0.216-2.136l17.237-86.208
	c3.173-16.162,13.683-29.928,28.437-37.248l24-11.989c4.107-2.05,9.065-1.242,12.309,2.005l5.44,5.44l110.613-50.261
	c4.044-1.854,8.814-1.004,11.968,2.133l18.219,18.219h55.168l18.219-18.219c3.154-3.137,7.924-3.988,11.968-2.133l110.571,50.261
	l5.44-5.44c3.244-3.247,8.202-4.055,12.309-2.005l24,12.011c14.754,7.32,25.265,21.086,28.437,37.248l17.237,86.187
	c1.178,5.772-2.546,11.406-8.318,12.585C502.77,511.932,502.055,512.004,501.338,512.004z M23.684,490.671h464.64l-14.72-73.451
	c-1.912-9.692-8.218-17.945-17.067-22.336l-17.067-8.533l-5.227,5.227c-3.154,3.137-7.924,3.988-11.968,2.133l-110.635-50.24
	l-16.107,16.107c-2.003,1.986-4.71,3.098-7.531,3.093h-64c-2.831,0.005-5.548-1.115-7.552-3.115l-16.085-16.085l-110.613,50.24
	c-4.044,1.854-8.814,1.004-11.968-2.133l-5.248-5.269l-17.067,8.533c-8.849,4.391-15.155,12.644-17.067,22.336L23.684,490.671z"/>
<path d="M117.338,512.004c-4.81-0.005-9.022-3.23-10.283-7.872l-32-117.333c-1.549-5.685,1.803-11.549,7.488-13.099
	c5.685-1.549,11.549,1.803,13.099,7.488l32,117.333c1.55,5.683-1.801,11.547-7.484,13.098c-0.001,0-0.003,0.001-0.004,0.001
	C119.237,511.876,118.289,512.005,117.338,512.004z"/>
<path d="M394.671,512.004c-0.952,0.001-1.899-0.128-2.816-0.384c-5.684-1.548-9.037-7.411-7.489-13.095
	c0-0.001,0.001-0.003,0.001-0.004l32-117.333c1.549-5.685,7.414-9.037,13.099-7.488s9.037,7.414,7.488,13.099l-32,117.333
	C403.693,508.775,399.481,511.999,394.671,512.004z"/>
<g>
</g>
<g>
</g>
<g>
</g>
<g>
</g>
<g>
</g>
<g>
</g>
<g>
</g>
<g>
</g>
<g>
</g>
<g>
</g>
<g>
</g>
<g>
</g>
<g>
</g>
<g>
</g>
<g>
</g>
</svg>
